<svg xmlns="http://www.w3.org/2000/svg" width="1920" height="1080" viewBox="0 0 1920 1080"><defs><clipPath id="a"><path d="M0 0h1920v1080H0z"/></clipPath></defs><g clip-path="url(#a)"><path fill="#fff" d="M0 0h1920v1080H0z"/><g fill="#e96d71"><path d="M0 729.185s129.782 93.86 350.412 23.569 412.708-62.5 765.716 59.7 661.757-119.549 873.479-105.76-68.829 22.49-68.829 22.49v358.2H0z" opacity=".05"/><path d="M0 776.185s111.613 132.17 425.686 31.148S776.1 700.7 1105.745 776.185s363.39 97.666 524.32 59.7 290.712-59.7 290.712-59.7v358.2H0z" opacity=".05"/><path d="M-3.014 761.081s143.768-95.914 426.216 23.911 317.595 49.126 679.53-42.709 395.11 27.036 525.334 50.787 289.697-64.642 289.697-64.642l6.09 358.2L3.076 1119.28z" opacity=".05"/></g></g></svg>