<svg xmlns="http://www.w3.org/2000/svg" width="1920" height="1080" viewBox="0 0 1920 1080"><defs><clipPath id="a"><path d="M0 0h1920v1080H0z"/></clipPath></defs><g clip-path="url(#a)"><path fill="#fff" d="M0 0h1920v1080H0z"/><g opacity=".1" fill="#e96d71"><path d="M949.616 227.697C1145.342 533.803 1282.3 394.039 1282.3 560.381s-139.184 337.955-332.684 332.683S463.335 674.192 508.3 539.295 753.889-78.41 949.616 227.697z" opacity=".05"/><path d="M1043.724 419.41c244.559 203.95 103.137 237.937 28.59 326.78s-225.794 118.122-326.78 28.589-161.629-334.829-77.158-386.724 130.791-172.596 375.348 31.356z" opacity=".1"/><path d="M1847.231-135.451c154.3 241.318 262.269 131.135 262.269 262.27s-109.724 266.426-262.269 262.271-383.358-172.548-347.91-278.893 193.609-486.966 347.91-245.648zM194.588 732.201c318.439-.965 231.95 231.95 231.95 231.95s-97.04 235.625-231.95 231.95-339.039-152.6-307.688-246.651-10.751-216.287 307.688-217.249z"/></g></g></svg>