<svg xmlns="http://www.w3.org/2000/svg" width="1920" height="1080" viewBox="0 0 1920 1080"><defs><clipPath id="a"><path d="M0 0h1920v1080H0z"/></clipPath></defs><g clip-path="url(#a)"><path fill="#fff" d="M0 0h1920v1080H0z"/><g fill="#e96d71"><path d="M1919.667 162.199s-129.782-93.86-350.412-23.569-412.708 62.5-765.716-59.7S141.782 198.479-69.94 184.69-1.111 162.2-1.111 162.2V-196h1920.778z" opacity=".05"/><path d="M1919.667 115.199s-111.613-132.17-425.686-31.148-350.414 106.633-680.059 31.148-363.39-97.666-524.32-59.7-290.712 59.7-290.712 59.7v-358.2h1920.777z" opacity=".05"/><path d="M1922.68 130.303s-143.767 95.914-426.215-23.911-317.595-49.126-679.53 42.709-395.11-27.036-525.334-50.787S1.904 162.956 1.904 162.956l-6.09-358.2 1920.777-32.653z" opacity=".05"/></g></g></svg>