<svg xmlns="http://www.w3.org/2000/svg" xmlns:xlink="http://www.w3.org/1999/xlink" width="1920" height="1080" viewBox="0 0 1920 1080"><defs><clipPath id="b"><rect width="1920" height="1080"/></clipPath></defs><g id="a" clip-path="url(#b)"><rect width="1920" height="1080" fill="#fff"/><g opacity="0.1"><path d="M270.616-54.725C466.342,251.381,603.3,111.617,603.3,277.959S464.116,615.914,270.616,610.642-215.665,391.77-170.7,256.873,74.889-360.832,270.616-54.725Z" transform="translate(679 282.422)" fill="#e96d71" opacity="0.05"/><path d="M135.588-84.962c318.439-.965,231.95,115.975,231.95,231.95s-97.04,235.625-231.95,231.95S-203.451,226.338-172.1,132.287-182.851-84,135.588-84.962Z" transform="translate(885.245 397.341) rotate(40)" fill="#e96d71" opacity="0.1"/><path d="M176.231-75.861C330.531,165.457,438.5,55.274,438.5,186.409S328.776,452.835,176.231,448.68s-383.358-172.548-347.91-278.893S21.93-317.179,176.231-75.861Z" transform="translate(1671 -59.59)" fill="#e96d71"/><path d="M135.588-84.962c318.439-.965,231.95,231.95,231.95,231.95s-97.04,235.625-231.95,231.95S-203.451,226.338-172.1,132.287-182.851-84,135.588-84.962Z" transform="translate(59 817.163)" fill="#e96d71"/></g></g></svg>