<svg xmlns="http://www.w3.org/2000/svg" xmlns:xlink="http://www.w3.org/1999/xlink" width="1920" height="1080" viewBox="0 0 1920 1080"><defs><clipPath id="b"><rect width="1920" height="1080"/></clipPath></defs><g id="a" clip-path="url(#b)"><rect width="1920" height="1080" fill="#fff"/><g transform="translate(0 -133)"><path d="M0,724.185s129.782,93.86,350.412,23.569,412.708-62.5,765.716,59.7,661.757-119.549,873.479-105.76-68.829,22.49-68.829,22.49v358.2H0Z" transform="translate(0 138)" fill="#e96d71" opacity="0.05"/><path d="M0,724.185s111.613,132.17,425.686,31.148S776.1,648.7,1105.745,724.185s363.39,97.666,524.32,59.7,290.712-59.7,290.712-59.7v358.2H0Z" transform="translate(0 185)" fill="#e96d71" opacity="0.05"/><path d="M0,724.185s145.356-93.443,425.686,31.148,316.669,54.509,680.059-31.148,394.538,33.743,524.32,59.7,290.712-59.7,290.712-59.7v358.2H0Z" transform="matrix(1, -0.017, 0.017, 1, -15.325, 169.896)" fill="#e96d71" opacity="0.05"/></g></g></svg>